<svg width="420" height="256" viewBox="0 0 420 256" fill="none" xmlns="http://www.w3.org/2000/svg">
<path d="M222.182 213.986H90.7686M237.726 28.55H90.7686M237.726 253.334H4.07422L24.0645 213.986H34.8987M237.726 2.5H23.8638L27.6192 11.3652M34.8987 28.55V213.986M34.8987 28.55H90.7686M34.8987 28.55L31.7786 21.1844M34.8987 213.986H90.7686M90.7686 213.986V28.55M51.8553 213.986V28.55M73.812 28.55V213.986M111.421 28.55V213.986M128.378 213.986V28.55M149.465 28.55V213.986M166.421 213.986V28.55M184.03 28.55V213.986M200.987 213.986V28.55M27.6192 11.3652H237.726M27.6192 11.3652L31.7786 21.1844M31.7786 21.1844H236.575M27.6192 225.348H237.726M17.6328 244.121H237.726M23.3691 235.082H237.726" stroke="white" stroke-width="5"/>
<path d="M222.182 213.986H90.7686M237.726 28.55H90.7686M237.726 253.334H4.07422L24.0645 213.986H34.8987M237.726 2.5H23.8638L27.6192 11.3652M34.8987 28.55V213.986M34.8987 28.55H90.7686M34.8987 28.55L31.7786 21.1844M34.8987 213.986H90.7686M90.7686 213.986V28.55M51.8553 213.986V28.55M73.812 28.55V213.986M111.421 28.55V213.986M128.378 213.986V28.55M149.465 28.55V213.986M166.421 213.986V28.55M184.03 28.55V213.986M200.987 213.986V28.55M27.6192 11.3652H237.726M27.6192 11.3652L31.7786 21.1844M31.7786 21.1844H236.575M27.6192 225.348H237.726M17.6328 244.121H237.726M23.3691 235.082H237.726" stroke="white" stroke-width="5"/>
<path d="M196.919 213.986H328.333M181.376 28.55H328.333M181.376 253.334H415.027L395.037 213.986H384.203M181.376 2.5H395.238L391.482 11.3652M384.203 28.55V213.986M384.203 28.55H328.333M384.203 28.55L387.323 21.1844M384.203 213.986H328.333M328.333 213.986V28.55M367.246 213.986V28.55M345.29 28.55V213.986M307.681 28.55V213.986M290.724 213.986V28.55M269.637 28.55V213.986M252.68 213.986V28.55M235.071 28.55V213.986M218.115 213.986V28.55M391.482 11.3652H181.376M391.482 11.3652L387.323 21.1844M387.323 21.1844H182.527M391.482 225.348H181.376M401.469 244.121H181.376M395.732 235.082H181.376" stroke="white" stroke-width="5"/>
<path d="M196.919 213.986H328.333M181.376 28.55H328.333M181.376 253.334H415.027L395.037 213.986H384.203M181.376 2.5H395.238L391.482 11.3652M384.203 28.55V213.986M384.203 28.55H328.333M384.203 28.55L387.323 21.1844M384.203 213.986H328.333M328.333 213.986V28.55M367.246 213.986V28.55M345.29 28.55V213.986M307.681 28.55V213.986M290.724 213.986V28.55M269.637 28.55V213.986M252.68 213.986V28.55M235.071 28.55V213.986M218.115 213.986V28.55M391.482 11.3652H181.376M391.482 11.3652L387.323 21.1844M387.323 21.1844H182.527M391.482 225.348H181.376M401.469 244.121H181.376M395.732 235.082H181.376" stroke="white" stroke-width="5"/>
</svg>
