<svg width="226" height="257" viewBox="0 0 226 257" fill="none" xmlns="http://www.w3.org/2000/svg">
<path d="M11.2605 188.788V253.761H69.514M11.2605 188.788H2.5V156.824H20.3205V174.15H28.4071V156.824H52.6669V174.15H60.6037V156.824H78.7237V188.788H69.514M11.2605 188.788H69.514M69.514 253.761V188.788M69.514 253.761H159.711M28.4071 243.197H50.347C50.347 243.197 50.347 228.698 39.7833 228.491C29.2197 228.284 28.4071 243.197 28.4071 243.197Z" stroke="white" stroke-width="5"/>
<path d="M213.927 188.788V253.761H155.674M213.927 188.788H222.688V156.824H204.867V174.15H196.78V156.824H172.521V174.15H164.584V156.824H146.464V188.788H155.674M213.927 188.788H155.674M155.674 253.761V188.788M155.674 253.761H65.4761M196.78 243.197H174.841C174.841 243.197 174.841 228.698 185.404 228.491C195.968 228.284 196.78 243.197 196.78 243.197Z" stroke="white" stroke-width="5"/>
<path d="M86.6239 97.0984V204.673M86.6239 97.0984H78.7204L113.413 41.2477M86.6239 97.0984H139.179M139.179 204.673V97.0984M139.179 97.0984H147.487L113.413 41.2477M113.413 41.2477V31.3055M113.413 31.3055V5.6214L149.973 2.92871L139.179 15.7708L149.973 27.37L113.413 31.3055ZM71.0566 204.673H93.2195V212.958H104.197V202.809H118.075V214.408H131.124V202.809H154.944M99.6405 133.628H127.81C127.81 133.628 127.81 113.743 113.413 113.743C99.6405 113.743 99.6405 133.628 99.6405 133.628ZM96.7407 246.306H130.089C130.089 246.306 131.124 230.15 113.413 229.736C95.7015 229.321 96.7407 246.306 96.7407 246.306Z" stroke="white" stroke-width="5"/>
</svg>
