<svg width="259" height="254" viewBox="0 0 259 254" fill="none" xmlns="http://www.w3.org/2000/svg">
<path d="M28.8064 154.896H2.5V251H17.2789M28.8064 154.896V191.714M28.8064 154.896V121.64H71.8623M28.8064 191.714H17.2789V251M28.8064 191.714H71.8623M17.2789 251H91.0749M91.0749 251V191.714H71.8623M91.0749 251H130.091M71.8623 121.64V191.714M71.8623 121.64V52.0987H81.7149M130.091 251H149.402M130.091 251V148.759M212.36 251H256.5V169.445H223.001M212.36 251V169.445H223.001M212.36 251H199.651M81.7149 52.0987V33.9483H86.6412M81.7149 52.0987H119.549M119.549 52.0987H130.091V148.759M119.549 52.0987V33.9483H114.13M86.6412 33.9483V22.6652H101.026M86.6412 33.9483H114.13M114.13 33.9483V22.6652H101.026M101.026 22.6652V0M223.001 169.445V102.34L174.526 127.578V148.759M174.526 206.065H199.651V251M174.526 206.065H149.402V251M174.526 206.065V148.759M199.651 251H149.402M130.091 148.759H174.526" stroke="white" stroke-width="5"/>
</svg>
