<svg width="230" height="254" viewBox="0 0 230 254" fill="none" xmlns="http://www.w3.org/2000/svg">
<path d="M115.714 250.999H2.87305L17.7345 144.36H27.0786L30.8162 133.055H37.1346L60.3582 22.9014V11.4507M60.3582 0V11.4507M60.3582 11.4507H52.6023M60.3582 11.4507H68.4183" stroke="white" stroke-width="5"/>
<path d="M60.2763 22.4873L83.606 133.093H89.9532L93.7079 144.445H103.095L107.788 161.38H117.156" stroke="white" stroke-width="5"/>
<path d="M169.075 22.4873L145.746 133.093H139.398L135.644 144.445H126.257L121.563 161.38H112.195" stroke="white" stroke-width="5"/>
<path d="M113.534 250.999H226.375L211.514 144.36H202.169L198.432 133.055H192.113L168.89 22.9014V11.4507M168.89 0V11.4507M168.89 11.4507H176.646M168.89 11.4507H160.83" stroke="white" stroke-width="5"/>
</svg>
