<svg width="306" height="256" viewBox="0 0 306 256" fill="none" xmlns="http://www.w3.org/2000/svg">
<path d="M303.5 174.492V253.5H157.714M303.5 174.492H238.731M303.5 174.492L289.111 38.0108M238.731 174.492H228.214M238.731 174.492L258.587 38.0108M179.474 95.7331L89.6812 174.492V110.031L2.5 174.492V253.5H69.953M179.474 95.7331L187.887 88.3534L173.961 174.492H228.214M179.474 95.7331L185.566 66.8719M228.214 174.492L214.144 66.8719M69.953 253.5V212.712H113.834M69.953 253.5H113.834M157.714 253.5V212.712H113.834M157.714 253.5H113.834M113.834 253.5V212.712M219.945 224.977H196.3V205.297H219.945M219.945 224.977V205.297M219.945 224.977H255.195M219.945 205.297H255.195M255.195 224.977H277.244V205.297H255.195M255.195 224.977V205.297M185.566 66.8719H214.144M185.566 66.8719L188.612 52.4414M214.144 66.8719L212.258 52.4414M188.612 52.4414L191.659 38.0108H210.371L212.258 52.4414M188.612 52.4414H212.258M258.587 38.0108H289.111M258.587 38.0108L261.17 20.2554M289.111 38.0108L287.239 20.2554M261.17 20.2554L263.754 2.5H285.367L287.239 20.2554M261.17 20.2554H287.239" stroke="white" stroke-width="5"/>
</svg>
