<svg width="268" height="258" viewBox="0 0 268 258" fill="none" xmlns="http://www.w3.org/2000/svg">
<path d="M90.9717 255.438V233.132M90.9717 120.301V156.684M90.9717 156.684L119.932 132.97M90.9717 156.684V186.029M90.9717 186.029L63.7342 170.22M90.9717 186.029V210.826M90.9717 210.826L104.578 202.055M90.9717 210.826V233.132M48.016 255.438H176.022M227.698 255.438H176.022M176.022 255.438V233.132M176.022 202.055V170.22M176.022 202.055L203.474 186.029M176.022 202.055V217.594M176.022 233.132C176.022 233.132 198.603 242.49 213.272 240.387C244.509 235.91 274.852 220.896 262.794 176.175C250.737 131.454 207.889 148.996 207.889 148.996C207.889 148.996 239.002 95.8294 186.249 87.3832C167.404 84.366 155.992 94.0756 149.107 107.804M176.022 233.132V217.594M176.022 233.132C176.022 233.132 129.529 261.991 110.596 228.584M90.9717 233.132C90.9717 233.132 20.2395 240.387 4.19909 186.029C-11.8413 131.671 90.9717 4.43848 90.9717 4.43848L149.107 107.804M90.9717 233.132L110.596 228.584M149.107 107.804C131.45 138.168 146.738 174.551 146.738 174.551C146.738 174.551 91.1861 180.615 107.873 222.845C108.699 224.936 109.61 226.845 110.596 228.584M176.022 217.594L155.135 202.055" stroke="white" stroke-width="5"/>
</svg>
