<svg width="321" height="178" viewBox="0 0 321 178" fill="none" xmlns="http://www.w3.org/2000/svg">
<path d="M22.7444 175.5H295.401M22.7444 175.5H0M22.7444 175.5C23.9406 174.357 50.3561 132.861 72.2931 98.243M135.546 126.277L98.3442 175.5M135.546 126.277L106.919 91.6147M135.546 126.277L181.786 62.3853M295.401 175.5H321M295.401 175.5L222.278 60.5381M72.2931 98.243C78.7264 88.0908 84.7745 78.53 89.6885 70.7521L106.919 91.6147M72.2931 98.243L82.1377 104.98L89.6885 95.6351L98.3442 102.698L106.919 91.6147M181.786 62.3853L203.963 31.7432L222.278 60.5381M181.786 62.3853L191.9 74.3378L202.49 60.5381L211.882 70.7521L222.278 60.5381M135.643 2.5018C126.411 2.63973 118.645 10.532 119.511 19.6546C120.3 27.978 127.22 33.742 135.643 33.8669C144.212 33.994 151.467 28.1215 152.269 19.6546C153.146 10.4009 145.008 2.36188 135.643 2.5018Z" stroke="white" stroke-width="5"/>
</svg>
