<svg width="293" height="257" viewBox="0 0 293 257" fill="none" xmlns="http://www.w3.org/2000/svg">
<path d="M72.0963 254.477H10.7515V184.895M72.0963 254.477V184.895M72.0963 254.477H127.523M10.7515 184.895H2.5V157.446H72.0963M10.7515 184.895H72.0963M72.0963 157.446V135.42H46.5082L146.027 57.161V31.0407M72.0963 157.446V184.895M127.523 225.192H146.027V254.477H127.523M127.523 225.192V254.477M127.523 225.192V217.433H146.027M146.027 108.555C126.785 108.555 111.187 124.169 111.187 143.429C111.187 162.69 126.785 178.304 146.027 178.304M146.027 119.553V143.429L132.008 157.446M146.027 31.0407V3.47754L191.659 18.8157L146.027 31.0407ZM23.754 195.157V211.092H59.844V195.157H23.754Z" stroke="white" stroke-width="5"/>
<path d="M219.951 254.477H281.294V184.856M219.951 254.477V184.856M219.951 254.477H164.525M146.022 57.0508L245.538 135.354H219.951V157.392M281.294 184.856H289.545V157.392H219.951M281.294 184.856H219.951M219.951 157.392V184.856M164.525 225.176H146.022V254.477H164.525M164.525 225.176V254.477M164.525 225.176V217.413H146.022M146.022 108.473C165.263 108.473 180.861 124.096 180.861 143.367C180.861 162.639 165.263 178.261 146.022 178.261M268.292 195.124V211.068H232.203V195.124H268.292Z" stroke="white" stroke-width="5"/>
</svg>
