<svg width="317" height="256" viewBox="0 0 317 256" fill="none" xmlns="http://www.w3.org/2000/svg">
<path d="M162.074 213.986H90.7686M162.074 28.55H90.7686M162.074 253.334H4.07422L24.0645 213.986H34.8987M162.074 2.5H23.8638L27.6192 11.3652M34.8987 28.55V213.986M34.8987 28.55H90.7686M34.8987 28.55L31.7786 21.1844M34.8987 213.986H90.7686M90.7686 213.986V28.55M51.8553 213.986V28.55M73.812 28.55V213.986M111.421 28.55V213.986M128.378 213.986V28.55M149.465 28.55V213.986M27.6192 11.3652H162.074M27.6192 11.3652L31.7786 21.1844M31.7786 21.1844H162.074M27.6192 225.348H162.074M17.6328 244.121H162.074M23.3691 235.082H162.074" stroke="white" stroke-width="5"/>
<path d="M154.074 213.986H225.38M154.074 28.55H225.38M154.074 253.334H312.074L292.084 213.986H281.25M154.074 2.5H292.285L288.529 11.3652M281.25 28.55V213.986M281.25 28.55H225.38M281.25 28.55L284.37 21.1844M281.25 213.986H225.38M225.38 213.986V28.55M264.293 213.986V28.55M242.336 28.55V213.986M204.728 28.55V213.986M187.771 213.986V28.55M166.684 28.55V213.986M288.529 11.3652H154.074M288.529 11.3652L284.37 21.1844M284.37 21.1844H154.074M288.529 225.348H154.074M298.516 244.121H154.074M292.779 235.082H154.074" stroke="white" stroke-width="5"/>
</svg>
