<svg width="216" height="262" viewBox="0 0 216 262" fill="none" xmlns="http://www.w3.org/2000/svg">
<path d="M103.657 162.242V62.2236M103.657 162.242H41.6023L103.657 62.2236M103.657 162.242V188.276M103.657 162.242H162.258C162.258 162.242 156.841 112.828 145.781 82.8117C134.141 51.223 103.657 7.89746 103.657 7.89746V62.2236M103.657 188.276L41.6023 197.043C41.6023 197.043 40.134 201.446 39.6024 206.473M103.657 188.276L187.239 175.259C187.239 175.259 186.392 179.671 184.217 185.752M39.6024 206.473C38.8953 213.161 39.8455 220.952 48.1134 220.952C50.4681 220.952 53.7254 220.952 57.674 220.952M39.6024 206.473L103.657 197.043M110.169 197.043L184.217 185.752M184.217 185.752C179.39 199.243 168.023 220.952 144.85 220.952C139.629 220.952 134.045 220.952 128.283 220.952M1.32617 246.713C1.32617 246.713 35.6688 231.012 57.674 220.952M57.674 220.952C66.1828 220.952 77.902 220.952 90.7175 220.952M57.674 220.952C63.4897 220.952 61.0601 233.057 67.4131 235.921C77.2722 240.366 72.2405 221.694 90.7175 220.952M90.7175 220.952C99.9788 220.952 90.0735 241.767 100.804 235.921C111.535 230.075 111.867 220.952 128.283 220.952M90.7175 220.952C102.854 220.952 115.975 220.952 128.283 220.952M128.283 220.952C155.455 220.952 138.4 234.484 147.935 235.921C161.916 238.029 163.082 215.895 177.152 214.511C193.483 212.905 213.326 235.921 213.326 235.921M213.326 252.457C213.326 252.457 192.669 235.305 177.152 235.921C163.592 236.459 159.038 253.802 145.781 250.891C136.486 248.849 135.9 237.659 126.544 235.921C112.741 233.357 109.298 259.88 96.1088 255.068C88.5237 252.301 89.7845 242.144 82.0218 239.925C71.7411 236.984 67.2841 257.148 57.674 252.457C50.9739 249.186 60.9783 234.18 48.1134 235.921C35.2485 237.662 1.32617 258.897 1.32617 258.897" stroke="white" stroke-width="5"/>
</svg>
