<svg width="215" height="238" viewBox="0 0 215 238" fill="none" xmlns="http://www.w3.org/2000/svg">
<path d="M108.52 235H2.87109L16.7853 135.158H25.5337L29.0331 124.573H34.9487L56.692 21.4416V10.7208M56.692 0V10.7208M56.692 10.7208H49.4304M56.692 10.7208H64.2383" stroke="white" stroke-width="5"/>
<path d="M56.6168 21.0547L78.4594 124.61H84.402L87.9174 135.239H96.7058L101.1 151.094H109.871" stroke="white" stroke-width="5"/>
<path d="M158.481 21.0547L136.638 124.61H130.696L127.18 135.239H118.392L113.997 151.094H105.227" stroke="white" stroke-width="5"/>
<path d="M106.488 235H212.137L198.223 135.158H189.474L185.975 124.573H180.059L158.316 21.4416V10.7208M158.316 0V10.7208M158.316 10.7208H165.577M158.316 10.7208H150.77" stroke="white" stroke-width="5"/>
</svg>
