<svg width="730" height="498" viewBox="0 0 730 498" fill="none" xmlns="http://www.w3.org/2000/svg">
<path d="M212.975 405.715L91.4647 325.047L247.37 379.88L166.364 220.788L316.869 343.401L346.917 129.925L385.99 312.717L506.044 200.527L440.999 372.022L576.873 368.526L478.841 425.973L682.802 442.8L472.581 457.41" stroke="#FF2222" stroke-width="5"/>
<line x1="647.64" y1="312.017" x2="540.829" y2="347.6" stroke="#FF2222" stroke-width="5"/>
<line x1="100.998" y1="304.255" x2="1.14983" y2="252.592" stroke="#FF2222" stroke-width="5"/>
<line x1="128.704" y1="305.923" x2="53.9167" y2="227.47" stroke="#FF2222" stroke-width="5"/>
<line x1="715.801" y1="343.402" x2="590.386" y2="345.583" stroke="#FF2222" stroke-width="5"/>
<line x1="251.048" y1="82.6476" x2="318.553" y2="174.794" stroke="#FF2222" stroke-width="5"/>
<line x1="287.097" y1="3.41457" x2="321.663" y2="123.992" stroke="#FF2222" stroke-width="5"/>
<line x1="357.685" y1="0.39879" x2="342.181" y2="96.3493" stroke="#FF2222" stroke-width="5"/>
<line x1="627.647" y1="264.706" x2="557.871" y2="315.507" stroke="#FF2222" stroke-width="5"/>
</svg>
