<svg width="312" height="433" viewBox="0 0 312 433" fill="none" xmlns="http://www.w3.org/2000/svg">
<path d="M10 425.5V51H53.5028H304V97H178.751H53.5028V425.5H10Z" fill="#262626"/>
<path d="M53.5028 51H10V425.5H53.5028V97M53.5028 51H304V97H178.751M53.5028 51V97M53.5028 97H178.751M178.751 97V137" stroke="#F5F5F5" stroke-width="15"/>
<circle cx="30.5" cy="30.5" r="25.5" fill="#262626" stroke="#F5F5F5" stroke-width="10"/>
<path d="M181 137.5C221.869 137.5 255 170.631 255 211.5C255 252.369 221.869 285.5 181 285.5C140.131 285.5 107 252.369 107 211.5C107 170.631 140.131 137.5 181 137.5Z" fill="#262626" stroke="#F5F5F5" stroke-width="15"/>
<circle cx="181" cy="212" r="4" fill="#F5F5F5"/>
<path d="M179 184L181 182L183 184V212H179V184Z" fill="#F5F5F5"/>
<path d="M149.404 244.622L148 244.917L148.296 243.514L180.829 210.981L181.937 212.089L149.404 244.622Z" fill="#F5F5F5"/>
</svg>
