<svg width="283" height="416" viewBox="0 0 283 416" fill="none" xmlns="http://www.w3.org/2000/svg">
<path d="M5 370.994C5.00002 352.066 9.5664 319.565 17.583 281.189C25.5771 242.922 36.929 199.156 50.3437 157.833C63.7739 116.462 79.2022 77.7562 95.2959 49.4883C103.351 35.3401 111.445 24.0358 119.37 16.331C127.356 8.5671 134.6 5.00015 141.028 4.99999C147.457 4.99999 154.701 8.56688 162.687 16.331C170.612 24.0358 178.707 35.3401 186.762 49.4883C202.855 77.7562 218.284 116.462 231.714 157.833C245.129 199.156 256.48 242.922 264.475 281.189C272.491 319.565 277.058 352.066 277.058 370.994C277.058 390.049 273.148 399.854 267.61 404.892C262.093 409.912 253.619 411.429 241.172 410.377C228.762 409.328 214.046 405.915 196.867 402.613C179.908 399.353 160.984 396.308 141.028 396.308C121.073 396.308 102.149 399.353 85.1904 402.613C68.0115 405.915 53.295 409.328 40.8848 410.377C28.4378 411.429 19.9647 409.911 14.4473 404.892C8.90997 399.854 5 390.049 5 370.994Z" fill="#262626" stroke="#F5F5F5" stroke-width="10"/>
</svg>
