<svg width="820" height="404" viewBox="0 0 820 404" fill="none" xmlns="http://www.w3.org/2000/svg">
<rect y="270.773" width="552.386" height="133.222" rx="66.6112" fill="#F5F5F5"/>
<rect x="108.311" y="183.046" width="266.445" height="98.563" fill="#F5F5F5"/>
<rect x="108.311" y="183.046" width="266.445" height="87.7319" fill="#F5F5F5"/>
<rect x="656.469" y="6.72754" width="322.897" height="13.4546" transform="rotate(120 656.469 6.72754)" fill="#F5F5F5"/>
<rect x="374.756" y="198.21" width="113.726" height="72.5683" fill="#F5F5F5"/>
<path d="M440.301 66.3213C440.219 67.0418 440.13 67.8492 440.037 68.7344C439.623 72.6913 439.125 78.2123 438.793 84.4727C438.134 96.9002 438.106 112.59 440.841 124.733C444.708 141.907 456.115 160.943 466.283 175.443C471.407 182.75 476.293 189.012 479.898 193.447C480.255 193.886 480.601 194.307 480.932 194.71H378.256V66.3213H440.301Z" stroke="#F5F5F5" stroke-width="7"/>
<rect x="149.469" y="106.146" width="225.287" height="76.9008" fill="#F5F5F5"/>
<path d="M653.762 6.67839C653.762 6.67839 652.101 75.357 671.021 115.163C685.808 146.275 715.648 179.772 715.648 179.772" stroke="#F5F5F5" stroke-width="5"/>
<circle cx="733.817" cy="198.763" r="26.9819" transform="rotate(-15 733.817 198.763)" fill="#F5F5F5"/>
<path d="M165.715 106.146V62.8213H126.723" stroke="#F5F5F5" stroke-width="5" stroke-linecap="round"/>
<rect x="381.254" y="198.21" width="21.6622" height="9.74798" rx="4.87399" fill="#262626"/>
<circle cx="68.4305" cy="337.636" r="34.2743" fill="#262626"/>
<circle cx="151.563" cy="337.636" r="34.2743" fill="#262626"/>
<circle cx="234.698" cy="337.636" r="34.2743" fill="#262626"/>
<circle cx="317.829" cy="337.636" r="34.2743" fill="#262626"/>
<circle cx="400.966" cy="337.636" r="34.2743" fill="#262626"/>
<circle cx="484.099" cy="337.636" r="34.2743" fill="#262626"/>
<path d="M699.688 240.992L763.049 253.99L746.261 278.901L715.934 268.611L699.688 240.992Z" fill="#F5F5F5"/>
<path d="M772.256 232.335L795.005 197.652L816.366 214.18L801.548 229.728L772.256 232.335Z" fill="#F5F5F5"/>
<path d="M777.672 268.607L800.734 281.188V314.64L782.158 305.301L777.672 268.607Z" fill="#F5F5F5"/>
<path d="M749.92 308.133L738.209 304.178L758.469 284.694L761.109 297.328L749.92 308.133Z" fill="#F5F5F5"/>
<path d="M706.452 302.403L701.681 284.914L719.569 284.914L725.928 293.659L706.452 302.403Z" fill="#F5F5F5"/>
</svg>
