<svg width="820" height="404" viewBox="0 0 820 404" fill="none" xmlns="http://www.w3.org/2000/svg">
<rect x="0.5" y="271.232" width="551.386" height="132.222" rx="66.1112" fill="#C32B38" stroke="#C32B38"/>
<rect x="108.811" y="183.546" width="265.445" height="97.563" fill="#C32B38" stroke="#C32B38"/>
<rect x="108.811" y="183.546" width="265.445" height="86.7319" fill="#C32B38" stroke="#C32B38"/>
<rect x="655.786" y="6.91055" width="321.897" height="12.4546" transform="rotate(120 655.786 6.91055)" fill="#C32B38" stroke="#C32B38"/>
<rect x="375.256" y="198.71" width="112.726" height="71.5683" fill="#C32B38" stroke="#C32B38"/>
<path d="M440.301 66.3213C440.219 67.0418 440.13 67.8492 440.037 68.7344C439.623 72.6913 439.125 78.2123 438.793 84.4727C438.134 96.9002 438.106 112.59 440.841 124.733C444.708 141.907 456.115 160.943 466.283 175.443C471.407 182.75 476.293 189.012 479.898 193.447C480.255 193.886 480.601 194.307 480.932 194.71H378.256V66.3213H440.301Z" stroke="#C32B38" stroke-width="7"/>
<rect x="149.969" y="106.646" width="224.287" height="75.9008" fill="#C32B38" stroke="#C32B38"/>
<path d="M653.762 6.67839C653.762 6.67839 652.101 75.357 671.021 115.163C685.808 146.275 715.648 179.772 715.648 179.772" stroke="#C32B38" stroke-width="5"/>
<circle cx="733.817" cy="198.763" r="26.4819" transform="rotate(-15 733.817 198.763)" fill="#C32B38" stroke="#C32B38"/>
<path d="M165.715 106.146V62.8213H126.723" stroke="#C32B38" stroke-width="5" stroke-linecap="round"/>
<rect x="381.754" y="198.71" width="20.6622" height="8.74798" rx="4.37399" fill="#D4D4D4" stroke="#C32B38"/>
<circle cx="68.4305" cy="337.596" r="33.7743" fill="#D4D4D4" stroke="#C32B38"/>
<circle cx="151.563" cy="337.596" r="33.7743" fill="#D4D4D4" stroke="#C32B38"/>
<circle cx="234.698" cy="337.596" r="33.7743" fill="#D4D4D4" stroke="#C32B38"/>
<circle cx="317.829" cy="337.596" r="33.7743" fill="#D4D4D4" stroke="#C32B38"/>
<circle cx="400.966" cy="337.596" r="33.7743" fill="#D4D4D4" stroke="#C32B38"/>
<circle cx="484.099" cy="337.596" r="33.7743" fill="#D4D4D4" stroke="#C32B38"/>
<path d="M762.217 254.329L746.06 278.305L716.27 268.197L700.688 241.708L762.217 254.329Z" fill="#C32B38" stroke="#C32B38"/>
<path d="M795.126 198.378L815.621 214.237L801.316 229.246L773.24 231.745L795.126 198.378Z" fill="#C32B38" stroke="#C32B38"/>
<path d="M800.233 281.443V313.786L782.621 304.934L778.285 269.47L800.233 281.443Z" fill="#C32B38" stroke="#C32B38"/>
<path d="M758.164 285.641L760.562 297.12L749.792 307.523L739.148 303.928L758.164 285.641Z" fill="#C32B38" stroke="#C32B38"/>
<path d="M719.314 285.374L725.161 293.414L706.781 301.667L702.336 285.373L719.314 285.374Z" fill="#C32B38" stroke="#C32B38"/>
</svg>
